<?xml version="1.0" encoding="iso-8859-1"?>
<!-- Uploaded to: SVG Repo, www.svgrepo.com, Generator: SVG Repo Mixer Tools -->
<svg fill="#000000" version="1.1" id="Layer_1" xmlns="http://www.w3.org/2000/svg" xmlns:xlink="http://www.w3.org/1999/xlink" 
	 viewBox="0 0 512 512" xml:space="preserve">
<g>
	<g>
		<rect x="204.8" y="221.867" width="17.067" height="25.6"/>
	</g>
</g>
<g>
	<g>
		<rect x="290.133" y="298.667" width="17.067" height="25.6"/>
	</g>
</g>
<g>
	<g>
		<rect x="290.133" y="221.867" width="17.067" height="25.6"/>
	</g>
</g>
<g>
	<g>
		<rect x="59.733" y="221.867" width="85.333" height="51.2"/>
	</g>
</g>
<g>
	<g>
		<rect x="204.8" y="298.667" width="17.067" height="25.6"/>
	</g>
</g>
<g>
	<g>
		<rect x="366.933" y="221.867" width="85.333" height="51.2"/>
	</g>
</g>
<g>
	<g>
		<path d="M503.467,110.933c5.12,0,8.533-3.413,8.533-8.533V34.133c0-5.12-3.413-8.533-8.533-8.533H366.933
			c-5.12,0-8.533,3.413-8.533,8.533V102.4c0,5.12,3.413,8.533,8.533,8.533h59.733V128h-25.6c-5.12,0-8.533,3.413-8.533,8.533v25.6
			h-93.867v-25.6c0-5.12-3.413-8.533-8.533-8.533h-25.6v-17.067h59.733c5.12,0,8.533-3.413,8.533-8.533V34.133
			c0-5.12-3.413-8.533-8.533-8.533H187.733c-5.12,0-8.533,3.413-8.533,8.533V102.4c0,5.12,3.413,8.533,8.533,8.533h59.733V128h-25.6
			c-5.12,0-8.533,3.413-8.533,8.533v25.6h-93.867v-25.6c0-5.12-3.413-8.533-8.533-8.533h-25.6v-17.067h59.733
			c5.12,0,8.533-3.413,8.533-8.533V34.133c0-5.12-3.413-8.533-8.533-8.533H8.533C3.413,25.6,0,29.013,0,34.133V102.4
			c0,5.12,3.413,8.533,8.533,8.533h59.733V128h-25.6c-5.12,0-8.533,3.413-8.533,8.533v25.6h-25.6c-5.12,0-8.533,3.413-8.533,8.533
			v204.8C0,380.587,3.413,384,8.533,384H25.6v93.867c0,5.12,3.413,8.533,8.533,8.533h51.2c5.12,0,8.533-3.413,8.533-8.533V384
			h324.267v93.867c0,5.12,3.413,8.533,8.533,8.533h51.2c5.12,0,8.533-3.413,8.533-8.533V384h17.067c5.12,0,8.533-3.413,8.533-8.533
			v-204.8c0-5.12-3.413-8.533-8.533-8.533h-25.6v-25.6c0-5.12-3.413-8.533-8.533-8.533h-25.6v-17.067H503.467z M230.4,145.067h51.2
			v17.067h-51.2V145.067z M51.2,145.067h51.2v17.067H51.2V145.067z M42.667,315.733c0-5.12,3.413-8.533,8.533-8.533
			s8.533,3.413,8.533,8.533V332.8c0,5.12-3.413,8.533-8.533,8.533s-8.533-3.413-8.533-8.533V315.733z M76.8,469.333H42.667V384H76.8
			V469.333z M93.867,332.8c0,5.12-3.413,8.533-8.533,8.533c-5.12,0-8.533-3.413-8.533-8.533v-17.067c0-5.12,3.413-8.533,8.533-8.533
			c5.12,0,8.533,3.413,8.533,8.533V332.8z M128,332.8c0,5.12-3.413,8.533-8.533,8.533s-8.533-3.413-8.533-8.533v-17.067
			c0-5.12,3.413-8.533,8.533-8.533s8.533,3.413,8.533,8.533V332.8z M162.133,332.8c0,5.12-3.413,8.533-8.533,8.533
			c-5.12,0-8.533-3.413-8.533-8.533v-17.067c0-5.12,3.413-8.533,8.533-8.533c5.12,0,8.533,3.413,8.533,8.533V332.8z M162.133,281.6
			c0,5.12-3.413,8.533-8.533,8.533H51.2c-5.12,0-8.533-3.413-8.533-8.533v-68.267c0-5.12,3.413-8.533,8.533-8.533h102.4
			c5.12,0,8.533,3.413,8.533,8.533V281.6z M238.933,332.8c0,5.12-3.413,8.533-8.533,8.533h-34.133c-5.12,0-8.533-3.413-8.533-8.533
			v-42.667c0-5.12,3.413-8.533,8.533-8.533H230.4c5.12,0,8.533,3.413,8.533,8.533V332.8z M238.933,256
			c0,5.12-3.413,8.533-8.533,8.533h-34.133c-5.12,0-8.533-3.413-8.533-8.533v-42.667c0-5.12,3.413-8.533,8.533-8.533H230.4
			c5.12,0,8.533,3.413,8.533,8.533V256z M324.267,332.8c0,5.12-3.413,8.533-8.533,8.533H281.6c-5.12,0-8.533-3.413-8.533-8.533
			v-42.667c0-5.12,3.413-8.533,8.533-8.533h34.133c5.12,0,8.533,3.413,8.533,8.533V332.8z M324.267,256
			c0,5.12-3.413,8.533-8.533,8.533H281.6c-5.12,0-8.533-3.413-8.533-8.533v-42.667c0-5.12,3.413-8.533,8.533-8.533h34.133
			c5.12,0,8.533,3.413,8.533,8.533V256z M366.933,332.8c0,5.12-3.413,8.533-8.533,8.533s-8.533-3.413-8.533-8.533v-17.067
			c0-5.12,3.413-8.533,8.533-8.533s8.533,3.413,8.533,8.533V332.8z M401.067,332.8c0,5.12-3.413,8.533-8.533,8.533
			c-5.12,0-8.533-3.413-8.533-8.533v-17.067c0-5.12,3.413-8.533,8.533-8.533c5.12,0,8.533,3.413,8.533,8.533V332.8z
			 M426.667,341.333c-5.12,0-8.533-3.413-8.533-8.533v-17.067c0-5.12,3.413-8.533,8.533-8.533s8.533,3.413,8.533,8.533V332.8
			C435.2,337.92,431.787,341.333,426.667,341.333z M469.333,469.333H435.2V384h34.133V469.333z M469.333,332.8
			c0,5.12-3.413,8.533-8.533,8.533c-5.12,0-8.533-3.413-8.533-8.533v-17.067c0-5.12,3.413-8.533,8.533-8.533
			c5.12,0,8.533,3.413,8.533,8.533V332.8z M469.333,213.333V281.6c0,5.12-3.413,8.533-8.533,8.533H358.4
			c-5.12,0-8.533-3.413-8.533-8.533v-68.267c0-5.12,3.413-8.533,8.533-8.533h102.4C465.92,204.8,469.333,208.213,469.333,213.333z
			 M460.8,145.067v17.067h-51.2v-17.067H460.8z"/>
	</g>
</g>
</svg>