<?xml version="1.0" encoding="iso-8859-1"?>
<!-- Uploaded to: SVG Repo, www.svgrepo.com, Generator: SVG Repo Mixer Tools -->
<svg fill="#000000" version="1.1" id="Layer_1" xmlns="http://www.w3.org/2000/svg" xmlns:xlink="http://www.w3.org/1999/xlink" 
	 viewBox="0 0 512 512" xml:space="preserve">
<g>
	<g>
		<g>
			<rect x="375.466" y="213.333" width="17.067" height="17.067"/>
			<rect x="443.732" y="213.333" width="17.067" height="17.067"/>
			<rect x="375.466" y="281.6" width="85.333" height="17.067"/>
			<rect x="375.466" y="51.2" width="85.333" height="51.2"/>
			<path d="M503.467,0H332.8c-4.71,0-8.533,3.823-8.533,8.533v264.533h-25.6v-85.461c0-9.335-7.603-16.939-16.939-16.939h-17.195
				h-51.2h-17.195c-9.335,0-16.939,7.603-16.939,16.939v85.461h-25.6v-85.461c0-9.335-7.603-16.939-16.939-16.939h-17.195h-51.2
				H51.072c-9.336,0-16.939,7.603-16.939,16.939v91.307C13.986,288.521,0,309.035,0,332.8c0,20.42,10.317,38.468,25.993,49.246
				c-0.154,0.648-0.393,1.263-0.393,1.954v119.467c0,4.71,3.823,8.533,8.533,8.533h51.2c4.71,0,8.533-3.823,8.533-8.533V392.533
				h230.4v110.933c0,4.71,3.823,8.533,8.533,8.533h170.667c4.719,0,8.533-3.823,8.533-8.533V8.533C512,3.823,508.186,0,503.467,0z
				 M213.333,187.708v34.159h51.2v-34.236l17.067-0.026v85.461h-85.342l-0.119-85.333L213.333,187.708z M68.267,187.708v34.159h51.2
				v-34.236l17.067-0.026v85.461h-76.8h-8.542l-0.119-85.333L68.267,187.708z M76.8,494.933H42.667v-102.4h17.067H76.8V494.933z
				 M68.267,358.4c-14.114,0-25.6-11.486-25.6-25.6c0-14.114,11.486-25.6,25.6-25.6s25.6,11.486,25.6,25.6
				C93.867,346.914,82.381,358.4,68.267,358.4z M136.533,358.4c-14.114,0-25.6-11.486-25.6-25.6c0-14.114,11.486-25.6,25.6-25.6
				s25.6,11.486,25.6,25.6C162.133,346.914,150.647,358.4,136.533,358.4z M204.8,358.4c-14.114,0-25.6-11.486-25.6-25.6
				c0-14.114,11.486-25.6,25.6-25.6s25.6,11.486,25.6,25.6C230.4,346.914,218.914,358.4,204.8,358.4z M273.067,358.4
				c-14.114,0-25.6-11.486-25.6-25.6c0-14.114,11.486-25.6,25.6-25.6s25.6,11.486,25.6,25.6
				C298.667,346.914,287.181,358.4,273.067,358.4z M358.4,145.067c0-4.71,3.823-8.533,8.533-8.533s8.533,3.823,8.533,8.533v25.6
				c0,4.71-3.823,8.533-8.533,8.533s-8.533-3.823-8.533-8.533V145.067z M358.4,204.8c0-4.71,3.823-8.533,8.533-8.533h34.133
				c4.719,0,8.533,3.823,8.533,8.533v34.133c0,4.71-3.814,8.533-8.533,8.533h-34.133c-4.71,0-8.533-3.823-8.533-8.533V204.8z
				 M392.533,170.667v-25.6c0-4.71,3.823-8.533,8.533-8.533c4.719,0,8.533,3.823,8.533,8.533v25.6c0,4.71-3.814,8.533-8.533,8.533
				C396.356,179.2,392.533,175.377,392.533,170.667z M375.467,469.333c0,4.71-3.823,8.533-8.533,8.533s-8.533-3.823-8.533-8.533
				v-128c0-4.71,3.823-8.533,8.533-8.533s8.533,3.823,8.533,8.533V469.333z M409.6,469.333c0,4.71-3.814,8.533-8.533,8.533
				c-4.71,0-8.533-3.823-8.533-8.533v-128c0-4.71,3.823-8.533,8.533-8.533c4.719,0,8.533,3.823,8.533,8.533V469.333z
				 M443.733,469.333c0,4.71-3.814,8.533-8.533,8.533s-8.533-3.823-8.533-8.533v-128c0-4.71,3.814-8.533,8.533-8.533
				s8.533,3.823,8.533,8.533V469.333z M477.867,469.333c0,4.71-3.814,8.533-8.533,8.533s-8.533-3.823-8.533-8.533v-128
				c0-4.71,3.814-8.533,8.533-8.533s8.533,3.823,8.533,8.533V469.333z M477.867,307.2c0,4.71-3.814,8.533-8.533,8.533h-102.4
				c-4.71,0-8.533-3.823-8.533-8.533v-34.133c0-4.71,3.823-8.533,8.533-8.533h102.4c4.719,0,8.533,3.823,8.533,8.533V307.2z
				 M477.867,238.933c0,4.71-3.814,8.533-8.533,8.533H435.2c-4.719,0-8.533-3.823-8.533-8.533V204.8c0-4.71,3.814-8.533,8.533-8.533
				h34.133c4.719,0,8.533,3.823,8.533,8.533V238.933z M426.667,170.667v-25.6c0-4.71,3.814-8.533,8.533-8.533
				s8.533,3.823,8.533,8.533v25.6c0,4.71-3.814,8.533-8.533,8.533S426.667,175.377,426.667,170.667z M477.867,170.667
				c0,4.71-3.814,8.533-8.533,8.533s-8.533-3.823-8.533-8.533v-25.6c0-4.71,3.814-8.533,8.533-8.533s8.533,3.823,8.533,8.533
				V170.667z M477.867,110.933c0,4.71-3.814,8.533-8.533,8.533h-102.4c-4.71,0-8.533-3.823-8.533-8.533V42.667
				c0-4.71,3.823-8.533,8.533-8.533h102.4c4.719,0,8.533,3.823,8.533,8.533V110.933z"/>
			<path d="M204.8,324.267c-4.702,0-8.533,3.831-8.533,8.533c0,4.702,3.831,8.533,8.533,8.533c4.702,0,8.533-3.831,8.533-8.533
				C213.333,328.098,209.502,324.267,204.8,324.267z"/>
			<path d="M68.267,324.267c-4.702,0-8.533,3.831-8.533,8.533c0,4.702,3.831,8.533,8.533,8.533s8.533-3.831,8.533-8.533
				C76.8,328.098,72.969,324.267,68.267,324.267z"/>
			<path d="M136.533,324.267c-4.702,0-8.533,3.831-8.533,8.533c0,4.702,3.831,8.533,8.533,8.533c4.702,0,8.533-3.831,8.533-8.533
				C145.067,328.098,141.235,324.267,136.533,324.267z"/>
			<path d="M273.067,324.267c-4.702,0-8.533,3.831-8.533,8.533c0,4.702,3.831,8.533,8.533,8.533c4.702,0,8.533-3.831,8.533-8.533
				C281.6,328.098,277.769,324.267,273.067,324.267z"/>
		</g>
	</g>
</g>
</svg>