<?xml version="1.0" encoding="iso-8859-1"?>
<!-- Uploaded to: SVG Repo, www.svgrepo.com, Generator: SVG Repo Mixer Tools -->
<svg height="800px" width="800px" version="1.1" id="Layer_1" xmlns="http://www.w3.org/2000/svg" xmlns:xlink="http://www.w3.org/1999/xlink" 
	 viewBox="0 0 511.986 511.986" xml:space="preserve">
<polygon style="fill:#F6BB42;" points="255.993,225.291 207.838,273.118 201.698,205.526 134.059,211.206 172.792,155.472 
	117.325,116.356 182.823,98.568 165.495,32.945 227.103,61.421 255.993,0 284.882,61.421 346.507,32.945 329.163,98.568 
	394.661,116.356 339.194,155.472 377.927,211.206 310.304,205.526 304.147,273.118 "/>
<g>
	<path style="fill:#FFCE54;" d="M117.325,160.004c0,5.883-4.766,10.664-10.656,10.664s-10.671-4.781-10.671-10.664
		c0-5.898,4.781-10.672,10.671-10.672S117.325,154.105,117.325,160.004z"/>
	<path style="fill:#FFCE54;" d="M159.995,287.993c0,5.905-4.781,10.671-10.671,10.671s-10.656-4.766-10.656-10.671
		c0-5.891,4.766-10.656,10.656-10.656S159.995,282.102,159.995,287.993z"/>
</g>
<g>
	<path style="fill:#A0D468;" d="M74.67,117.333c0,5.891-4.781,10.664-10.672,10.664c-5.89,0-10.671-4.773-10.671-10.664
		c0-5.891,4.781-10.663,10.671-10.663C69.889,106.67,74.67,111.442,74.67,117.333z"/>
	<path style="fill:#A0D468;" d="M415.989,181.332c0,5.89-4.781,10.671-10.672,10.671s-10.656-4.781-10.656-10.671
		c0-5.891,4.766-10.664,10.656-10.664S415.989,175.441,415.989,181.332z"/>
	<path style="fill:#A0D468;" d="M330.663,309.336c0,5.875-4.781,10.656-10.672,10.656s-10.672-4.781-10.672-10.656
		c0-5.906,4.781-10.672,10.672-10.672S330.663,303.43,330.663,309.336z"/>
</g>
<path style="fill:#FFCE54;" d="M458.659,138.669c0,5.891-4.781,10.663-10.672,10.663s-10.672-4.772-10.672-10.663
	s4.781-10.672,10.672-10.672S458.659,132.778,458.659,138.669z"/>
<path style="fill:#434A54;" d="M245.322,357.335v143.996c0,5.875,4.781,10.655,10.671,10.655c5.89,0,10.672-4.78,10.672-10.655
	V357.335H245.322z"/>
<path style="fill:#FC6E51;" d="M447.987,42.561h-10.672V32c0-5.891-4.766-10.664-10.654-10.664c-5.891,0-10.672,4.773-10.672,10.664
	v10.562h-10.672c-5.891,0-10.656,4.773-10.656,10.664s4.766,10.664,10.656,10.664h10.672v10.671c0,5.891,4.781,10.664,10.672,10.664
	c5.889,0,10.654-4.773,10.654-10.664V63.889h10.672c5.891,0,10.672-4.773,10.672-10.664S453.878,42.561,447.987,42.561z"/>
<path style="fill:#ED5564;" d="M405.317,255.939h-10.656v-10.555c0-5.891-4.781-10.664-10.672-10.664s-10.672,4.773-10.672,10.664
	v10.555h-10.656c-5.891,0-10.67,4.781-10.67,10.671c0,5.883,4.779,10.664,10.67,10.664h10.656v10.656
	c0,5.905,4.781,10.687,10.672,10.687s10.672-4.781,10.672-10.687v-10.656h10.656c5.891,0,10.672-4.781,10.672-10.664
	C415.989,260.721,411.208,255.939,405.317,255.939z"/>
<path style="fill:#FC6E51;" d="M106.669,234.556H95.997v-10.562c0-5.89-4.781-10.663-10.672-10.663
	c-5.89,0-10.656,4.773-10.656,10.663v10.562H63.998c-5.89,0-10.671,4.773-10.671,10.664s4.781,10.664,10.671,10.664H74.67v10.671
	c0,5.891,4.766,10.656,10.656,10.656c5.891,0,10.672-4.766,10.672-10.656v-10.671h10.671c5.891,0,10.656-4.773,10.656-10.664
	S112.559,234.556,106.669,234.556z"/>
<path style="fill:#ED5564;" d="M106.669,21.226H95.997V10.672C95.997,4.781,91.216,0,85.325,0c-5.89,0-10.656,4.781-10.656,10.672
	v10.555H63.998c-5.89,0-10.671,4.773-10.671,10.664c0,5.89,4.781,10.671,10.671,10.671H74.67v10.664
	c0,5.891,4.766,10.664,10.656,10.664c5.891,0,10.672-4.773,10.672-10.664V42.561h10.671c5.891,0,10.656-4.781,10.656-10.671
	C117.325,26,112.559,21.226,106.669,21.226z"/>
<path style="fill:#FFCE54;" d="M287.991,160.004c0-17.679-14.326-32.007-31.998-32.007c-17.671,0-31.999,14.328-31.999,32.007l0,0
	v21.328h63.997V160.004L287.991,160.004z"/>
<polygon style="fill:#656D78;" points="223.994,181.332 223.994,405.334 245.322,426.661 266.665,426.661 287.991,405.334 
	287.991,181.332 "/>
</svg>