<?xml version="1.0" encoding="iso-8859-1"?>
<!-- Uploaded to: SVG Repo, www.svgrepo.com, Generator: SVG Repo Mixer Tools -->
<svg version="1.1" id="Layer_1" xmlns="http://www.w3.org/2000/svg" xmlns:xlink="http://www.w3.org/1999/xlink" 
	 viewBox="0 0 512 512" xml:space="preserve">
<path style="fill:#FBA026;" d="M268.658,338.32v52.354c0,10.462-8.481,18.943-18.943,18.943H96.441
	c-10.462,0-18.943-8.481-18.943-18.943V338.32H268.658z"/>
<rect x="131.746" y="409.621" style="fill:#747D8C;" width="82.664" height="61.998"/>
<circle style="fill:#EB4E49;" cx="173.078" cy="203.126" r="162.745"/>
<path style="fill:#EFEFEF;" d="M173.078,324.542c-66.947,0-121.413-54.465-121.413-121.413S106.13,81.716,173.078,81.716
	S294.49,136.182,294.49,203.129S240.025,324.542,173.078,324.542z"/>
<circle style="fill:#747D8C;" cx="400.92" cy="235.158" r="28.416"/>
<path style="fill:#EB4E49;" d="M173.078,236.711c-18.518,0-33.582-15.064-33.582-33.582s15.064-33.582,33.582-33.582
	s33.582,15.064,33.582,33.582S191.595,236.711,173.078,236.711z"/>
<g>
	<path style="fill:#231F20;" d="M304.823,203.129c0-72.645-59.101-131.746-131.746-131.746S41.332,130.485,41.332,203.129
		s59.101,131.746,131.746,131.746S304.823,275.774,304.823,203.129z M61.998,203.129c0-61.25,49.83-111.08,111.08-111.08
		s111.08,49.83,111.08,111.08s-49.83,111.08-111.08,111.08S61.998,264.379,61.998,203.129z"/>
	<path style="fill:#231F20;" d="M245.712,256.921c3.402-4.583,2.444-11.054-2.138-14.456c-4.583-3.402-11.054-2.444-14.456,2.138
		c-13.142,17.705-34.091,28.274-56.04,28.274c-5.707,0-10.333,4.626-10.333,10.333c0,5.707,4.626,10.333,10.333,10.333
		C201.537,293.543,228.691,279.853,245.712,256.921z"/>
	<path style="fill:#231F20;" d="M252.711,216.513c0.132,0.005,0.265,0.007,0.397,0.007c5.526,0,10.108-4.373,10.319-9.943
		c0.043-1.145,0.065-2.294,0.065-3.449c0-5.707-4.626-10.333-10.333-10.333c-5.707,0-10.333,4.626-10.333,10.333
		c0,0.894-0.017,1.783-0.05,2.669C242.56,211.501,247.008,216.299,252.711,216.513z"/>
	<path style="fill:#231F20;" d="M400.92,196.413c-21.367,0-38.749,17.382-38.749,38.749c0,17.788,12.051,32.804,28.416,37.338
		v125.062c0,25.449-20.704,46.154-46.154,46.154h-119.69v-23.766h24.972c16.143,0,29.276-13.133,29.276-29.276v-50.755
		c40.834-31.689,67.164-81.219,67.164-136.789c0-95.436-77.642-173.078-173.078-173.078S0,107.694,0,203.129
		c0,55.57,26.331,105.1,67.164,136.789v50.755c0,16.143,13.133,29.276,29.276,29.276h24.972v51.665
		c0,5.707,4.626,10.333,10.333,10.333h82.664c5.707,0,10.333-4.626,10.333-10.333v-7.233h119.69c36.844,0,66.82-29.975,66.82-66.82
		v-125.06c16.364-4.534,28.416-19.551,28.416-37.338C439.669,213.796,422.287,196.413,400.92,196.413z M20.666,203.129
		c0-84.04,68.371-152.412,152.412-152.412s152.412,68.372,152.412,152.412s-68.371,152.412-152.412,152.412
		S20.666,287.169,20.666,203.129z M87.83,390.673v-36.962c25.179,14.31,54.274,22.496,85.247,22.496s60.068-8.186,85.247-22.496
		v36.962c0,4.748-3.862,8.611-8.61,8.611H96.441C91.693,399.285,87.83,395.421,87.83,390.673z M204.077,461.283h-61.998v-41.332
		h61.998V461.283z M400.92,253.244c-9.97,0-18.083-8.112-18.083-18.083c0-9.97,8.112-18.083,18.083-18.083
		c9.97,0,18.083,8.112,18.083,18.083C419.003,245.132,410.891,253.244,400.92,253.244z"/>
	<path style="fill:#231F20;" d="M501.667,224.828h-30.999c-5.707,0-10.333,4.626-10.333,10.333s4.626,10.333,10.333,10.333h30.999
		c5.707,0,10.333-4.626,10.333-10.333S507.374,224.828,501.667,224.828z"/>
	<path style="fill:#231F20;" d="M400.92,175.747c5.707,0,10.333-4.626,10.333-10.333v-30.999c0-5.707-4.626-10.333-10.333-10.333
		c-5.707,0-10.333,4.626-10.333,10.333v30.999C390.587,171.121,395.213,175.747,400.92,175.747z"/>
	<path style="fill:#231F20;" d="M457.546,277.173c-4.035-4.034-10.578-4.034-14.614,0c-4.035,4.035-4.035,10.578,0,14.614
		l21.919,21.919c2.018,2.018,4.662,3.027,7.306,3.027c2.644,0,5.289-1.009,7.306-3.027c4.035-4.035,4.035-10.578,0-14.614
		L457.546,277.173z"/>
	<path style="fill:#231F20;" d="M450.239,196.176c2.644,0,5.289-1.01,7.306-3.027l21.919-21.919c4.035-4.035,4.035-10.578,0-14.614
		c-4.035-4.035-10.578-4.035-14.614,0l-21.919,21.919c-4.035,4.035-4.035,10.578,0,14.614
		C444.95,195.167,447.594,196.176,450.239,196.176z"/>
	<path style="fill:#231F20;" d="M216.993,203.129c0-24.215-19.7-43.915-43.915-43.915s-43.915,19.7-43.915,43.915
		s19.7,43.915,43.915,43.915S216.993,227.345,216.993,203.129z M149.828,203.129c0-12.82,10.429-23.249,23.249-23.249
		s23.249,10.429,23.249,23.249s-10.429,23.249-23.249,23.249S149.828,215.949,149.828,203.129z"/>
</g>
</svg>