<?xml version="1.0" encoding="iso-8859-1"?>
<!-- Uploaded to: SVG Repo, www.svgrepo.com, Generator: SVG Repo Mixer Tools -->
<svg height="800px" width="800px" version="1.1" id="Layer_1" xmlns="http://www.w3.org/2000/svg" xmlns:xlink="http://www.w3.org/1999/xlink" 
	 viewBox="0 0 512 512" xml:space="preserve">
<path style="fill:#5B5D6E;" d="M256,463.896L256,463.896c-92.832,0-168.086-75.255-168.086-168.086V189.65
	c0-68.402,55.451-123.853,123.853-123.853h88.467c68.402,0,123.853,55.451,123.853,123.853v106.16
	C424.086,388.641,348.831,463.896,256,463.896z"/>
<g>
	<path style="fill:#505161;" d="M140.994,295.81V189.65c0-68.402,55.451-123.853,123.853-123.853h-53.08
		c-68.402,0-123.853,55.451-123.853,123.853v106.16c0,92.831,75.255,168.086,168.086,168.086c9.055,0,17.875-0.918,26.54-2.296
		C202.352,448.848,140.994,379.588,140.994,295.81z"/>
	<path style="fill:#505161;" d="M196.965,366.583l12.675,90.909c1.219,8.743,8.696,15.251,17.524,15.251h57.671
		c8.828,0,16.304-6.507,17.524-15.251l12.675-90.909H196.965z"/>
</g>
<circle style="fill:#464655;" cx="256" cy="357.736" r="61.927"/>
<path style="fill:#505161;" d="M140.994,110.03L140.994,110.03c-9.772,0-17.693-7.921-17.693-17.693V48.104
	c0-4.886,3.961-8.847,8.847-8.847h17.693c4.886,0,8.847,3.961,8.847,8.847v44.233C158.687,102.109,150.766,110.03,140.994,110.03z"
	/>
<path style="fill:#E4EAF8;" d="M176.38,163.11c-29.267,0-53.08,23.813-53.08,53.08s23.813,53.08,53.08,53.08
	s53.08-23.813,53.08-53.08S205.647,163.11,176.38,163.11z"/>
<path style="fill:#FFFFFF;" d="M154.033,168.216c-6.592,3.085-12.372,7.491-17.156,12.867l74.61,74.61
	c5.377-4.784,9.782-10.564,12.867-17.156L154.033,168.216z"/>
<path style="fill:#E4EAF8;" d="M335.62,163.11c-29.267,0-53.08,23.813-53.08,53.08s23.813,53.08,53.08,53.08
	s53.08-23.813,53.08-53.08S364.887,163.11,335.62,163.11z"/>
<path style="fill:#FFFFFF;" d="M313.273,168.216c-6.592,3.085-12.372,7.491-17.156,12.867l74.61,74.61
	c5.377-4.784,9.782-10.564,12.867-17.156L313.273,168.216z"/>
<path style="fill:#5B5D6E;" d="M256,384.276c-14.637,0-26.54-11.903-26.54-26.54s11.903-26.54,26.54-26.54s26.54,11.903,26.54,26.54
	S270.637,384.276,256,384.276z"/>
<path style="fill:#707487;" d="M140.994,110.03L140.994,110.03c-9.772,0-17.693-7.921-17.693-17.693V74.644h35.387v17.693
	C158.687,102.109,150.766,110.03,140.994,110.03z"/>
<path style="fill:#505161;" d="M371.006,110.03L371.006,110.03c-9.772,0-17.693-7.921-17.693-17.693V48.104
	c0-4.886,3.961-8.847,8.847-8.847h17.693c4.886,0,8.847,3.961,8.847,8.847v44.233C388.7,102.109,380.779,110.03,371.006,110.03z"/>
<g>
	<path style="fill:#707487;" d="M371.006,110.03L371.006,110.03c-9.772,0-17.693-7.921-17.693-17.693V74.644H388.7v17.693
		C388.7,102.109,380.779,110.03,371.006,110.03z"/>
	<path style="fill:#707487;" d="M123.3,286.963H52.527V455.05H123.3c24.429,0,44.233-37.627,44.233-84.043
		S147.729,286.963,123.3,286.963z"/>
</g>
<g>
	<ellipse style="fill:#505161;" cx="52.527" cy="371.006" rx="44.233" ry="84.043"/>
	<path style="fill:#505161;" d="M388.7,455.05h70.773V286.963H388.7c-24.429,0-44.233,37.627-44.233,84.043
		S364.271,455.05,388.7,455.05z"/>
</g>
<ellipse style="fill:#707487;" cx="459.473" cy="371.006" rx="44.233" ry="84.043"/>
<path d="M52.527,340.596c-8.531,0-17.14,9.403-17.14,30.41s8.609,30.41,17.14,30.41s17.14-9.403,17.14-30.41
	S61.058,340.596,52.527,340.596z"/>
<path d="M459.473,278.67H432.38V189.65c0-34.148-12.823-66.217-36.199-90.856c0.53-2.066,0.813-4.229,0.813-6.457V48.104
	c0-9.452-7.689-17.14-17.14-17.14H362.16c-9.452,0-17.14,7.689-17.14,17.14v17.189c-14.3-5.166-29.31-7.789-44.786-7.789h-88.467
	c-15.477,0-30.487,2.623-44.786,7.789V48.104c0-9.452-7.689-17.14-17.14-17.14h-17.693c-9.452,0-17.14,7.689-17.14,17.14v44.233
	c0,2.228,0.283,4.392,0.813,6.457C92.442,123.433,79.62,155.5,79.62,189.65v89.019H52.527C23.072,278.67,0,319.229,0,371.006
	s23.072,92.337,52.527,92.337H123.3c13.058,0,24.855-7.983,33.949-21.368c14.001,9.483,29.186,16.85,45.276,21.96
	c3.651,10.149,13.237,17.102,24.42,17.102h58.108c11.183,0,20.769-6.951,24.42-17.102c16.091-5.11,31.277-12.476,45.277-21.96
	c9.094,13.385,20.891,21.368,33.949,21.368h70.773c29.455,0,52.527-40.56,52.527-92.337S488.928,278.67,459.473,278.67z
	 M361.607,48.104c0-0.305,0.248-0.553,0.553-0.553h17.693c0.305,0,0.553,0.248,0.553,0.553V66.35h-18.799V48.104z M361.607,82.937
	h18.799v9.4c0,5.183-4.217,9.4-9.4,9.4s-9.4-4.217-9.4-9.4V82.937z M131.594,48.104c0-0.305,0.248-0.553,0.553-0.553h17.693
	c0.305,0,0.553,0.248,0.553,0.553V66.35h-18.799V48.104z M131.594,82.937h18.799v9.4c0,5.183-4.217,9.4-9.4,9.4s-9.4-4.217-9.4-9.4
	V82.937z M52.527,446.756c-8.462,0-17.187-7.357-23.938-20.185c-7.74-14.704-12.002-34.438-12.002-55.565s4.262-40.86,12.002-55.565
	c6.751-12.828,15.476-20.185,23.938-20.185s17.187,7.357,23.938,20.185c7.74,14.704,12.002,34.438,12.002,55.565
	s-4.262,40.86-12.002,55.565C69.714,439.399,60.989,446.756,52.527,446.756z M147.238,426.571
	c-6.751,12.828-15.476,20.185-23.938,20.185h-4.998c13.475-16.555,22.139-44.038,22.139-75.749c0-7.897-0.55-15.735-1.632-23.297
	c-0.649-4.535-4.849-7.689-9.385-7.034c-4.535,0.649-7.683,4.851-7.034,9.385c0.972,6.786,1.464,13.833,1.464,20.946
	c0,21.127-4.262,40.861-12.002,55.565c-6.751,12.828-15.476,20.185-23.938,20.185h-4.998c13.476-16.555,22.139-44.038,22.139-75.749
	s-8.663-59.194-22.139-75.749h4.987c0.003,0,0.007,0,0.011,0c0.001,0,0.003,0,0.006,0c8.888,0.003,17.929,7.984,24.807,21.898
	c1.446,2.925,4.385,4.62,7.441,4.62c1.234,0,2.488-0.276,3.669-0.86c4.106-2.029,5.789-7.004,3.759-11.11
	c-2.746-5.555-5.812-10.416-9.142-14.547h4.847c8.462,0,17.187,7.357,23.938,20.185c7.74,14.704,12.002,34.438,12.002,55.565
	S154.978,411.867,147.238,426.571z M294.345,456.478c-0.711,4.619-4.618,7.971-9.29,7.971h-58.108c-4.672,0-8.579-3.352-9.29-7.971
	l-6.945-45.138c12.236,10.355,28.041,16.616,45.288,16.616s33.052-6.261,45.289-16.616L294.345,456.478z M256,411.369
	c-29.573,0-53.633-24.06-53.633-53.633c0-29.573,24.06-53.633,53.633-53.633c29.573,0,53.633,24.06,53.633,53.633
	C309.633,387.31,285.573,411.369,256,411.369z M312.864,445.183l10.304-66.978c1.978-6.48,3.052-13.351,3.052-20.47
	c0-38.72-31.501-70.22-70.22-70.22s-70.22,31.502-70.22,70.221c0,7.118,1.073,13.99,3.052,20.47l10.304,66.978
	c-11.974-4.556-23.334-10.54-33.932-17.876c6.686-15.486,10.624-34.933,10.624-56.302c0-51.777-23.072-92.337-52.527-92.337H96.207
	V189.65c0-28.578,10.268-55.491,29.067-76.637c4.368,3.33,9.815,5.311,15.719,5.311c14.329,0,25.987-11.658,25.987-25.987v-9.24
	c14.162-5.971,29.202-9.006,44.786-9.006h88.467c15.584,0,30.624,3.034,44.786,9.006v9.24c0,14.329,11.658,25.987,25.987,25.987
	c5.904,0,11.351-1.983,15.719-5.311c18.799,21.147,29.067,48.061,29.067,76.637v89.019H388.7c-29.455,0-52.527,40.56-52.527,92.337
	c0,21.369,3.938,40.816,10.624,56.301C336.199,434.645,324.839,440.627,312.864,445.183z M424.086,446.756
	c-8.462,0-17.187-7.357-23.938-20.185c-7.74-14.704-12.002-34.438-12.002-55.565c0-7.113,0.492-14.159,1.464-20.946
	c0.649-4.534-2.5-8.736-7.034-9.385c-4.532-0.654-8.736,2.5-9.385,7.034c-1.083,7.562-1.632,15.4-1.632,23.297
	c0,31.712,8.663,59.194,22.139,75.749H388.7c-8.462,0-17.187-7.357-23.938-20.185c-7.74-14.704-12.002-34.438-12.002-55.565
	s4.262-40.86,12.002-55.565c6.751-12.828,15.476-20.185,23.938-20.185h4.847c-3.33,4.131-6.396,8.992-9.142,14.547
	c-2.03,4.106-0.347,9.08,3.759,11.11c1.181,0.584,2.435,0.86,3.669,0.86c3.055,0,5.996-1.695,7.441-4.62
	c6.88-13.916,15.924-21.898,24.813-21.898h4.998c-13.476,16.555-22.139,44.038-22.139,75.749s8.663,59.194,22.139,75.749H424.086z
	 M483.411,426.571c-6.751,12.828-15.476,20.185-23.938,20.185s-17.187-7.357-23.938-20.185
	c-7.74-14.704-12.002-34.438-12.002-55.565s4.262-40.86,12.002-55.565c6.751-12.828,15.476-20.185,23.938-20.185
	s17.187,7.357,23.938,20.185c7.74,14.704,12.002,34.438,12.002,55.565S491.151,411.867,483.411,426.571z"/>
<path d="M459.473,340.596c-8.531,0-17.14,9.403-17.14,30.41s8.609,30.41,17.14,30.41s17.14-9.403,17.14-30.41
	S468.004,340.596,459.473,340.596z"/>
<path d="M176.38,154.816c-33.842,0-61.374,27.532-61.374,61.374s27.532,61.374,61.374,61.374s61.374-27.532,61.374-61.374
	S210.222,154.816,176.38,154.816z M176.38,260.976c-24.695,0-44.786-20.091-44.786-44.786s20.091-44.786,44.786-44.786
	s44.786,20.091,44.786,44.786S201.076,260.976,176.38,260.976z"/>
<path d="M396.993,216.19c0-33.842-27.532-61.374-61.374-61.374s-61.374,27.532-61.374,61.374s27.532,61.374,61.374,61.374
	S396.993,250.032,396.993,216.19z M335.62,260.976c-24.695,0-44.786-20.091-44.786-44.786s20.091-44.786,44.786-44.786
	c24.695,0,44.786,20.091,44.786,44.786S360.315,260.976,335.62,260.976z"/>
<path d="M280.727,344.993c-4.513,0.784-7.535,5.078-6.751,9.591c0.179,1.032,0.27,2.092,0.27,3.153
	c0,10.061-8.185,18.246-18.246,18.246c-10.061,0-18.246-8.185-18.246-18.246c0-10.061,8.185-18.246,18.246-18.246
	c1.024,0,2.05,0.085,3.053,0.253c4.524,0.759,8.792-2.292,9.549-6.811c0.756-4.517-2.292-8.792-6.811-9.549
	c-1.904-0.32-3.853-0.481-5.791-0.481c-19.207,0-34.834,15.627-34.834,34.834c0,19.207,15.626,34.834,34.834,34.834
	s34.834-15.627,34.834-34.834c0-2.009-0.174-4.025-0.515-5.991C289.535,347.232,285.244,344.206,280.727,344.993z"/>
</svg>