<?xml version="1.0" encoding="iso-8859-1"?>
<!-- Uploaded to: SVG Repo, www.svgrepo.com, Generator: SVG Repo Mixer Tools -->
<svg fill="#000000" version="1.1" id="Layer_1" xmlns="http://www.w3.org/2000/svg" xmlns:xlink="http://www.w3.org/1999/xlink" 
	 viewBox="0 0 512 512" xml:space="preserve">
<g>
	<g>
		<g>
			<path d="M409.6,341.333h-68.267c-4.71,0-8.533,3.823-8.533,8.533v51.2c0,4.71,3.823,8.533,8.533,8.533H409.6
				c4.71,0,8.533-3.823,8.533-8.533v-51.2C418.133,345.156,414.31,341.333,409.6,341.333z"/>
			<path d="M298.667,187.733c2.21,0,4.42-0.853,6.093-2.56c3.302-3.362,3.243-8.764-0.119-12.066
				c-10.982-10.769-14.507-19.661-14.507-36.574c0-32.939,26.795-59.733,59.733-59.733c32.939,0,59.733,26.795,59.733,59.733
				c0,16.077-3.831,25.677-14.626,36.693c-3.302,3.362-3.251,8.764,0.119,12.066c3.362,3.302,8.764,3.251,12.066-0.119
				c13.858-14.131,19.507-28.22,19.507-48.64c0-39.458-29.926-72.03-68.267-76.297V8.533c0-4.71-3.823-8.533-8.533-8.533
				s-8.533,3.823-8.533,8.533v51.703c-38.34,4.267-68.267,36.838-68.267,76.297c0,21.513,5.325,34.731,19.627,48.759
				C294.357,186.923,296.508,187.733,298.667,187.733z"/>
			<rect x="85.332" y="238.933" width="119.467" height="85.333"/>
			<path d="M469.333,426.667H460.8v-179.2c0-14.114-11.486-25.6-25.6-25.6H256v-8.533c0-14.114-11.486-25.6-25.6-25.6H59.733
				c-14.114,0-25.6,11.486-25.6,25.6v214.195C14.686,431.497,0,448.734,0,469.333C0,492.86,19.14,512,42.667,512h426.667
				C492.86,512,512,492.86,512,469.333C512,445.807,492.86,426.667,469.333,426.667z M51.2,477.867c-4.71,0-8.533-3.823-8.533-8.533
				S46.49,460.8,51.2,460.8s8.533,3.823,8.533,8.533S55.91,477.867,51.2,477.867z M85.333,477.867c-4.71,0-8.533-3.823-8.533-8.533
				s3.823-8.533,8.533-8.533c4.71,0,8.533,3.823,8.533,8.533S90.044,477.867,85.333,477.867z M119.467,477.867
				c-4.71,0-8.533-3.823-8.533-8.533s3.823-8.533,8.533-8.533s8.533,3.823,8.533,8.533S124.177,477.867,119.467,477.867z
				 M153.6,477.867c-4.71,0-8.533-3.823-8.533-8.533s3.823-8.533,8.533-8.533c4.71,0,8.533,3.823,8.533,8.533
				S158.31,477.867,153.6,477.867z M187.733,477.867c-4.71,0-8.533-3.823-8.533-8.533s3.823-8.533,8.533-8.533
				s8.533,3.823,8.533,8.533S192.444,477.867,187.733,477.867z M221.867,477.867c-4.71,0-8.533-3.823-8.533-8.533
				s3.823-8.533,8.533-8.533c4.71,0,8.533,3.823,8.533,8.533S226.577,477.867,221.867,477.867z M238.933,221.867v204.8H51.2V213.333
				c0-4.702,3.831-8.533,8.533-8.533H230.4c4.702,0,8.533,3.831,8.533,8.533V221.867z M256,477.867c-4.71,0-8.533-3.823-8.533-8.533
				S251.29,460.8,256,460.8s8.533,3.823,8.533,8.533S260.71,477.867,256,477.867z M290.133,477.867c-4.71,0-8.533-3.823-8.533-8.533
				s3.823-8.533,8.533-8.533s8.533,3.823,8.533,8.533S294.844,477.867,290.133,477.867z M324.267,477.867
				c-4.71,0-8.533-3.823-8.533-8.533s3.823-8.533,8.533-8.533c4.71,0,8.533,3.823,8.533,8.533S328.977,477.867,324.267,477.867z
				 M358.4,477.867c-4.71,0-8.533-3.823-8.533-8.533s3.823-8.533,8.533-8.533s8.533,3.823,8.533,8.533S363.11,477.867,358.4,477.867
				z M392.533,477.867c-4.71,0-8.533-3.823-8.533-8.533s3.823-8.533,8.533-8.533c4.71,0,8.533,3.823,8.533,8.533
				S397.244,477.867,392.533,477.867z M426.667,477.867c-4.71,0-8.533-3.823-8.533-8.533s3.823-8.533,8.533-8.533
				s8.533,3.823,8.533,8.533S431.377,477.867,426.667,477.867z M443.733,426.667H256V238.933h179.2c4.702,0,8.533,3.831,8.533,8.533
				V426.667z M460.8,477.867c-4.71,0-8.533-3.823-8.533-8.533s3.823-8.533,8.533-8.533c4.71,0,8.533,3.823,8.533,8.533
				S465.51,477.867,460.8,477.867z"/>
		</g>
	</g>
</g>
</svg>