<?xml version="1.0" encoding="iso-8859-1"?>
<!-- Uploaded to: SVG Repo, www.svgrepo.com, Generator: SVG Repo Mixer Tools -->
<!DOCTYPE svg PUBLIC "-//W3C//DTD SVG 1.1//EN" "http://www.w3.org/Graphics/SVG/1.1/DTD/svg11.dtd">
<svg fill="#000000" height="800px" width="800px" version="1.1" id="Capa_1" xmlns="http://www.w3.org/2000/svg" xmlns:xlink="http://www.w3.org/1999/xlink" 
	 viewBox="0 0 224.677 224.677" xml:space="preserve">
<path d="M112.485,64.666c20.901,0,26.356-15.483,27.78-23.33c-0.111-0.284-0.212-0.571-0.278-0.873
	c-1.87-8.559-4.561-20.124-6.768-26.614c-3.859-11.352-15.106-13.971-20.88-13.844c-5.744-0.146-17.021,2.492-20.88,13.844
	c-2.202,6.476-4.901,17.598-6.778,25.788c-0.125,0.543-0.344,1.052-0.614,1.532C85.65,49.048,91.438,64.666,112.485,64.666z
	 M98.81,24.382c0-6.245,5.081-11.325,11.325-11.325h4.637c6.245,0,11.325,5.08,11.325,11.325v1.599
	c0,6.245-5.081,11.325-11.325,11.325h-4.637c-6.245,0-11.325-5.08-11.325-11.325V24.382z M166.202,103.366l-0.958,7.089
	c-0.397,2.937-1.646,5.551-3.454,7.643l0.61,6.476c0.56,5.95-3.639,11.247-9.559,12.06c-0.496,0.068-0.996,0.102-1.493,0.102
	c-0.688,0-1.371-0.071-2.044-0.196l1.735,38.652c0.01,0.23,0.01,0.462-0.001,0.692c-0.274,5.747-2.979,10.81-7.086,14.172v10.063
	l3.363,7.9c1.578,3.709,1.193,7.93-1.029,11.291s-5.956,5.368-9.985,5.368c-4.752,0-9.055-2.812-10.963-7.163l-4.684-10.681
	c-0.705-1.605-1.062-3.311-1.062-5.065V190.57c-4.066-2.913-6.696-7.597-7.11-12.708l-0.085-0.479l-0.085,0.479
	c-0.397,4.9-2.841,9.401-6.624,12.332v11.574c0,1.755-0.357,3.46-1.063,5.067l-4.684,10.68c-1.908,4.351-6.21,7.162-10.962,7.162
	c-4.03,0-7.763-2.007-9.985-5.368s-2.607-7.582-1.03-11.29l3.364-7.901v-9.679c-4.379-3.354-7.289-8.586-7.573-14.557
	c-0.011-0.225-0.011-0.45-0.001-0.675l1.645-38.733c-0.77,0.166-1.556,0.26-2.347,0.26c-0.498,0-0.997-0.034-1.494-0.102
	c-5.918-0.813-10.117-6.109-9.557-12.058l0.639-6.784c-1.67-2.04-2.826-4.538-3.204-7.335l-0.958-7.091
	c-1.318-9.754-0.799-19.548,1.544-29.109l3.072-12.537c0.816-3.331,2.778-6.295,5.524-8.347l2.744-2.052
	c4.375,12.079,14.301,25.078,33.53,27.809v56.959c0,4.143,3.358,7.5,7.5,7.5s7.5-3.357,7.5-7.5V79.174
	c16.758-2.303,25.576-12.308,30.117-20.87c1.255-2.367,2.229-4.713,2.997-6.935l2.652,1.834c2.984,2.062,5.104,5.14,5.967,8.666
	l3.036,12.387C167.001,83.817,167.52,93.611,166.202,103.366z"/>
</svg>