<?xml version="1.0" encoding="iso-8859-1"?>
<!-- Uploaded to: SVG Repo, www.svgrepo.com, Generator: SVG Repo Mixer Tools -->
<svg height="800px" width="800px" version="1.1" id="Layer_1" xmlns="http://www.w3.org/2000/svg" xmlns:xlink="http://www.w3.org/1999/xlink" 
	 viewBox="0 0 512 512" xml:space="preserve">
<path style="fill:#D5DCED;" d="M91.06,329.306v18.327c24.065,21.34,88.725,36.653,164.94,36.653s140.874-15.313,164.94-36.653
	v-18.327H91.06z"/>
<path style="fill:#C7CFE2;" d="M338.47,375.123c-76.215,0-140.874-15.313-164.94-36.653v-9.163H91.06v18.327
	c24.065,21.34,88.725,36.653,164.94,36.653c36.144,0,69.617-3.475,97.466-9.373C348.521,375.046,343.526,375.123,338.47,375.123z"/>
<path style="fill:#E4EAF8;" d="M430.103,347.633H81.897c-10.122,0-18.327-8.205-18.327-18.327v-27.49H448.43v27.49
	C448.43,339.429,440.225,347.633,430.103,347.633z"/>
<path style="fill:#D5DCED;" d="M173.53,329.306v-27.49H63.57v27.49c0,10.121,8.206,18.327,18.327,18.327h109.96
	C181.736,347.633,173.53,339.427,173.53,329.306z"/>
<polygon style="fill:#464655;" points="494.246,237.673 17.754,237.673 63.57,310.98 448.43,310.98 "/>
<path style="fill:#E4EAF8;" d="M494.246,256H17.754c-5.06,0-9.163-4.103-9.163-9.163v-109.96c0-5.06,4.103-9.163,9.163-9.163
	h476.492c5.06,0,9.163,4.103,9.163,9.163v109.96C503.409,251.897,499.307,256,494.246,256z"/>
<circle style="fill:#FF5050;" cx="256" cy="191.857" r="27.49"/>
<path style="fill:#D5DCED;" d="M136.877,246.837v-109.96c0-5.06,4.103-9.163,9.163-9.163H17.754c-5.06,0-9.163,4.103-9.163,9.163
	v109.96c0,5.06,4.103,9.163,9.163,9.163H146.04C140.98,256,136.877,251.897,136.877,246.837z"/>
<path d="M494.246,119.123H17.754C7.964,119.123,0,127.087,0,136.877v109.96c0,9.79,7.964,17.754,17.754,17.754h4.566l32.66,48.99
	v15.725c0,14.842,12.075,26.917,26.917,26.917h6.047c28.161,22.345,93.371,36.653,168.056,36.653s139.895-14.309,168.056-36.653
	h6.047c14.842,0,26.917-12.075,26.917-26.917v-15.725l32.66-48.99h4.566c9.79,0,17.754-7.964,17.754-17.754v-109.96
	C512,127.087,504.036,119.123,494.246,119.123z M42.969,264.591H82.47v37.799H68.168L42.969,264.591z M119.123,264.591v37.799
	H99.651v-37.799H119.123z M155.776,264.591v37.799h-19.472v-37.799H155.776z M192.43,264.591v37.799h-19.472v-37.799H192.43z
	 M229.083,264.591v37.799h-19.472v-37.799H229.083z M265.736,264.591v37.799h-19.472v-37.799H265.736z M302.389,264.591v37.799
	h-19.472v-37.799H302.389z M339.043,264.591v37.799H319.57v-37.799H339.043z M375.696,264.591v37.799h-19.472v-37.799H375.696z
	 M412.349,264.591v37.799h-19.472v-37.799H412.349z M430.103,339.043h-91.63c-4.744,0-8.591,3.846-8.591,8.591
	c0,4.744,3.846,8.591,8.591,8.591h49.426C356.37,368.162,307.622,375.696,256,375.696s-100.37-7.533-131.899-19.472h177.714
	c4.744,0,8.591-3.846,8.591-8.591c0-4.744-3.846-8.591-8.591-8.591H81.897c-5.369,0-9.736-4.367-9.736-9.736v-9.736h367.678v9.736
	C439.839,334.675,435.471,339.043,430.103,339.043z M443.832,302.389H429.53v-37.799h39.501L443.832,302.389z M494.819,246.837
	c0,0.316-0.257,0.573-0.573,0.573H17.754c-0.316,0-0.573-0.257-0.573-0.573v-109.96c0-0.316,0.257-0.573,0.573-0.573h476.492
	c0.316,0,0.573,0.257,0.573,0.573V246.837z"/>
<path d="M281.63,178.689c-4.676,0.806-7.812,5.249-7.007,9.926c0.183,1.061,0.276,2.151,0.276,3.242
	c0,10.421-8.478,18.899-18.899,18.899s-18.899-8.478-18.899-18.899c0-10.421,8.478-18.899,18.899-18.899
	c0.937,0,1.877,0.069,2.795,0.204c4.694,0.693,9.06-2.55,9.753-7.244c0.693-4.694-2.55-9.06-7.244-9.753
	c-1.746-0.258-3.531-0.388-5.306-0.388c-19.895,0-36.081,16.186-36.081,36.081s16.186,36.081,36.081,36.081
	c19.895,0,36.081-16.186,36.081-36.081c0-2.066-0.176-4.138-0.525-6.161C290.75,181.021,286.308,177.884,281.63,178.689z"/>
</svg>